<svg version="1.1" xmlns="http://www.w3.org/2000/svg" xmlns:xlink="http://www.w3.org/1999/xlink" width="461.95646" height="190.26295" viewBox="0,0,461.95646,190.26295"><g transform="translate(-7.50985,-87.49353)"><g data-paper-data="{&quot;isPaintingLayer&quot;:true}" fill-rule="nonzero" stroke-linejoin="miter" stroke-miterlimit="10" stroke-dasharray="" stroke-dashoffset="0" style="mix-blend-mode: normal"><path d="M12.75985,261.81709c98.12081,6.08409 127.1711,10.83477 212.06385,10.68598c84.89275,-0.14878 89.12993,-5.62609 146.59448,-8.80022c43.53991,-2.40499 53.58556,-3.14641 78.27861,1.88576" fill="none" stroke="#004cad" stroke-width="10.5" stroke-linecap="round"/><path d="M73.08037,184.95959v-76.67187h19.40625c6.69792,0 11.90625,0.83854 15.625,2.51563c3.71875,1.66666 6.33334,4.28646 7.84375,7.85938c1.52084,3.5625 2.28125,8.18229 2.28125,13.85938v27.82813c0,5.73959 -0.76041,10.42709 -2.28125,14.0625c-1.51041,3.625 -4.10937,6.29166 -7.79687,8c-3.6875,1.69791 -8.84896,2.54688 -15.48437,2.54688zM90.03349,173.22521h2.64063c2.59375,0 4.45833,-0.38021 5.59375,-1.14062c1.13541,-0.76041 1.84375,-1.89584 2.125,-3.40625c0.28125,-1.51041 0.42188,-3.40104 0.42188,-5.67187v-33.42187c0,-2.27084 -0.17187,-4.09896 -0.51562,-5.48437c-0.34375,-1.39584 -1.08334,-2.40625 -2.21875,-3.03125c-1.13541,-0.63541 -2.96875,-0.95312 -5.5,-0.95312h-2.54687z" fill="#004cad" stroke="none" stroke-width="1" stroke-linecap="butt"/><path d="M347.67798,184.95959v-76.67187h21.10938c5.17708,0 9.65625,0.56771 13.4375,1.70313c3.79167,1.13541 6.74479,3.17188 8.85938,6.10938c2.11458,2.9375 3.17188,7.08334 3.17188,12.4375c0,3.15625 -0.25521,5.96875 -0.76562,8.4375c-0.5,2.45834 -1.42708,4.58854 -2.78125,6.39063c-1.35417,1.79166 -3.29687,3.28646 -5.82812,4.48438l10.51563,37.10938h-17.51562l-8.42187,-34.35937h-4.82812v34.35938zM364.63112,140.85021h4.73438c2.39583,0 4.25521,-0.42709 5.57813,-1.28125c1.32292,-0.85416 2.25,-2.08334 2.78125,-3.6875c0.54167,-1.61459 0.8125,-3.55729 0.8125,-5.82812c0,-3.28125 -0.59896,-5.83334 -1.79687,-7.65625c-1.19792,-1.83334 -3.40625,-2.75 -6.625,-2.75h-5.48437z" fill="#004cad" stroke="none" stroke-width="1" stroke-linecap="butt"/><path d="M197.26927,184.95959v-76.67187h25.75c4.60416,0 8.39063,0.86979 11.35938,2.60938c2.96875,1.72916 5.17708,4.25 6.625,7.5625c1.45833,3.3125 2.1875,7.33854 2.1875,12.07813c0,5.92709 -0.97917,10.45313 -2.9375,13.57813c-1.95833,3.125 -4.60937,5.28646 -7.95312,6.48438c-3.34375,1.19791 -7.09896,1.79688 -11.26563,1.79688h-6.8125v32.5625zM214.2224,140.56896h5.67188c2.08334,0 3.66146,-0.38021 4.73438,-1.14062c1.07291,-0.76041 1.78125,-1.89584 2.125,-3.40625c0.35417,-1.51041 0.53125,-3.4375 0.53125,-5.78125c0,-1.94791 -0.14583,-3.66146 -0.4375,-5.14062c-0.28125,-1.48959 -0.95834,-2.67709 -2.03125,-3.5625c-1.07291,-0.88541 -2.74479,-1.32812 -5.01562,-1.32812h-5.57812z" fill="#004cad" stroke="none" stroke-width="1" stroke-linecap="butt"/><path d="M251.31797,108.28771h25.74997c4.60417,0 8.39063,0.86979 11.35938,2.60938c2.96875,1.72916 5.17708,4.25 6.625,7.5625c1.45833,3.3125 2.1875,7.33854 2.1875,12.07813c0,5.92709 -0.97917,10.45313 -2.9375,13.57813c-1.95833,3.125 -4.60937,5.28646 -7.95312,6.48438c-3.34375,1.19791 -7.09896,1.79688 -11.26562,1.79688h-6.8125v32.5625h-16.9531zM268.27107,140.56896h5.67188c2.08333,0 3.66146,-0.38021 4.73438,-1.14062c1.07292,-0.76041 1.78125,-1.89584 2.125,-3.40625c0.35417,-1.51041 0.53125,-3.4375 0.53125,-5.78125c0,-1.94791 -0.14583,-3.66146 -0.4375,-5.14062c-0.28125,-1.48959 -0.95833,-2.67709 -2.03125,-3.5625c-1.07292,-0.88541 -2.74479,-1.32812 -5.01562,-1.32812h-5.57812z" fill="#004cad" stroke="none" stroke-width="1" stroke-linecap="butt"/><path d="M18.51679,185.15959l14.875,-41.26562c0,0 -5.09291,-22.1327 -15.20312,-42.80625c-1.82565,-3.73311 -3.95566,-6.71394 -3.95566,-6.71394c0,0 3.19432,-0.54394 5.04079,0.07291c0.21527,0.07191 0.83756,0.94693 1.01857,1.04831c1.86771,1.04599 1.23808,2.98524 3.77977,4.99784c5.35077,4.23694 5.53408,3.80138 11.51653,11.59488c2.70455,3.52329 8.02187,17.13438 8.02187,17.13438l6.8125,-20.73437h14.10938l-13.45312,39.84375l14.96875,36.82813h-15.90625l-9.375,-22.90625l-8.23437,22.90625z" fill="#004cad" stroke="none" stroke-width="1" stroke-linecap="butt"/><path d="M305.36665,184.95959v-76.67187h34.46875v11.54688h-17.51562v19.03125h13.34375v11.73438h-13.34375v22.90625h17.70313v11.45313z" fill="#004cad" stroke="none" stroke-width="1" stroke-linecap="butt"/><path d="M124.8697,184.95959v-10.21875l18.73438,-55h-17.89062v-11.45312h34.54688v9.5625l-19.01562,55.65625h19.20313v11.45313z" fill="#004cad" stroke="none" stroke-width="1" stroke-linecap="butt"/><path d="M168.8871,184.95959v-76.67187h16.9375v76.67188z" fill="#004cad" stroke="none" stroke-width="1" stroke-linecap="butt"/><path d="M78.08037,184.95959v-76.67187h19.40625c6.69792,0 11.90625,0.83854 15.625,2.51563c3.71875,1.66666 6.33334,4.28646 7.84375,7.85938c1.52084,3.5625 2.28125,8.18229 2.28125,13.85938v27.82813c0,5.73959 -0.76041,10.42709 -2.28125,14.0625c-1.51041,3.625 -4.10937,6.29166 -7.79687,8c-3.6875,1.69791 -8.84896,2.54688 -15.48437,2.54688zM95.03349,173.22521h2.64063c2.59375,0 4.45833,-0.38021 5.59375,-1.14062c1.13541,-0.76041 1.84375,-1.89584 2.125,-3.40625c0.28125,-1.51041 0.42188,-3.40104 0.42188,-5.67187v-33.42187c0,-2.27084 -0.17187,-4.09896 -0.51562,-5.48437c-0.34375,-1.39584 -1.08334,-2.40625 -2.21875,-3.03125c-1.13541,-0.63541 -2.96875,-0.95312 -5.5,-0.95312h-2.54687z" fill="#0096ff" stroke="none" stroke-width="1" stroke-linecap="butt"/><path d="M352.67798,184.95959v-76.67187h21.10938c5.17708,0 9.65625,0.56771 13.4375,1.70313c3.79167,1.13541 6.74479,3.17188 8.85938,6.10938c2.11458,2.9375 3.17188,7.08334 3.17188,12.4375c0,3.15625 -0.25521,5.96875 -0.76562,8.4375c-0.5,2.45834 -1.42708,4.58854 -2.78125,6.39063c-1.35417,1.79166 -3.29687,3.28646 -5.82812,4.48438l10.51563,37.10938h-17.51562l-8.42187,-34.35937h-4.82812v34.35938zM369.63112,140.85021h4.73438c2.39583,0 4.25521,-0.42709 5.57813,-1.28125c1.32292,-0.85416 2.25,-2.08334 2.78125,-3.6875c0.54167,-1.61459 0.8125,-3.55729 0.8125,-5.82812c0,-3.28125 -0.59896,-5.83334 -1.79687,-7.65625c-1.19792,-1.83334 -3.40625,-2.75 -6.625,-2.75h-5.48437z" fill="#0096ff" stroke="none" stroke-width="1" stroke-linecap="butt"/><path d="M202.26926,184.95959v-76.67187h25.75c4.60417,0 8.39063,0.86979 11.35938,2.60938c2.96875,1.72916 5.17708,4.25 6.625,7.5625c1.45833,3.3125 2.1875,7.33854 2.1875,12.07813c0,5.92709 -0.97917,10.45313 -2.9375,13.57813c-1.95833,3.125 -4.60937,5.28646 -7.95312,6.48438c-3.34375,1.19791 -7.09896,1.79688 -11.26562,1.79688h-6.8125v32.5625zM219.22239,140.56896h5.67188c2.08334,0 3.66146,-0.38021 4.73438,-1.14062c1.07292,-0.76041 1.78125,-1.89584 2.125,-3.40625c0.35417,-1.51041 0.53125,-3.4375 0.53125,-5.78125c0,-1.94791 -0.14583,-3.66146 -0.4375,-5.14062c-0.28125,-1.48959 -0.95833,-2.67709 -2.03125,-3.5625c-1.07292,-0.88541 -2.74479,-1.32812 -5.01563,-1.32812h-5.57812z" fill="#0096ff" stroke="none" stroke-width="1" stroke-linecap="butt"/><path d="M256.31797,108.28771h25.74997c4.60417,0 8.39063,0.86979 11.35938,2.60938c2.96875,1.72916 5.17708,4.25 6.625,7.5625c1.45833,3.3125 2.1875,7.33854 2.1875,12.07813c0,5.92709 -0.97917,10.45313 -2.9375,13.57813c-1.95833,3.125 -4.60937,5.28646 -7.95312,6.48438c-3.34375,1.19791 -7.09896,1.79688 -11.26562,1.79688h-6.8125v32.5625h-16.9531zM273.27107,140.56896h5.67188c2.08333,0 3.66146,-0.38021 4.73438,-1.14062c1.07292,-0.76041 1.78125,-1.89584 2.125,-3.40625c0.35417,-1.51041 0.53125,-3.4375 0.53125,-5.78125c0,-1.94791 -0.14583,-3.66146 -0.4375,-5.14062c-0.28125,-1.48959 -0.95833,-2.67709 -2.03125,-3.5625c-1.07292,-0.88541 -2.74479,-1.32812 -5.01562,-1.32812h-5.57812z" fill="#0096ff" stroke="none" stroke-width="1" stroke-linecap="butt"/><path d="M23.51679,185.15959l14.875,-41.26562c0,0 -5.09291,-22.1327 -15.20312,-42.80625c-1.82565,-3.73311 -3.95566,-6.71394 -3.95566,-6.71394c0,0 4.93812,2.23826 9.83913,6.11906c5.35077,4.23694 5.53408,3.80138 11.51653,11.59488c2.70455,3.52329 8.02187,17.13438 8.02187,17.13438l6.8125,-20.73437h14.10938l-13.45312,39.84375l14.96875,36.82813h-15.90625l-9.375,-22.90625l-8.23437,22.90625z" fill="#0096ff" stroke="none" stroke-width="1" stroke-linecap="butt"/><path d="M310.36665,184.95959v-76.67187h34.46875v11.54688h-17.51562v19.03125h13.34375v11.73438h-13.34375v22.90625h17.70313v11.45313z" fill="#0096ff" stroke="none" stroke-width="1" stroke-linecap="butt"/><path d="M129.8697,184.95959v-10.21875l18.73438,-55h-17.89062v-11.45312h34.54688v9.5625l-19.01562,55.65625h19.20313v11.45313z" fill="#0096ff" stroke="none" stroke-width="1" stroke-linecap="butt"/><path d="M173.8871,184.95959v-76.67187h16.9375v76.67188z" fill="#0096ff" stroke="none" stroke-width="1" stroke-linecap="butt"/><path d="M402.48127,210.76303c0.86311,1.76491 3.21092,2.9214 5.12221,4.0964c2.13145,1.31034 3.79499,2.54061 3.79499,2.54061c0,0 -4.73078,-1.4017 -8.88482,-3.03907c-2.61603,-1.03114 -4.93371,-2.22537 -5.91584,-3.00306c-5.35077,-4.23694 -5.53408,-3.80137 -11.51653,-11.59488c-1.48842,-1.93901 -3.95569,-6.87084 -5.70497,-10.9703c-0.7362,-1.72528 -1.05059,-2.95104 -1.50034,-4.06486c1.35492,0.03304 2.76876,-0.07342 4.1076,-0.08956c3.3786,-0.04073 6.65621,-0.07126 10.07619,0.00841c2.4991,7.64975 5.97509,17.02415 10.42153,26.11631z" data-paper-data="{&quot;index&quot;:null}" fill="#004cad" stroke="none" stroke-width="1" stroke-linecap="butt"/><path d="M407.55144,210.76303c1.82565,3.73311 3.95566,6.71393 3.95566,6.71393c0,0 -4.93812,-2.23825 -9.83913,-6.11905c-5.35077,-4.23694 -5.53408,-3.80137 -11.51653,-11.59488c-1.88912,-2.46101 -5.0061,-9.51582 -6.72297,-13.66701c-0.14711,-0.35571 -0.27692,-0.6901 -0.3972,-0.99846c-0.06628,-0.16991 -0.11212,-0.33191 -0.17392,-0.48522c0.01408,0.0004 4.79103,-1.07547 9.44275,-1.08397c3.16855,-0.00579 6.13469,1.04029 8.0622,1.08241c2.50174,7.67031 2.72081,17.01532 7.18914,26.15225z" data-paper-data="{&quot;index&quot;:null}" fill="#0096ff" stroke="none" stroke-width="1" stroke-linecap="butt"/><path d="M350.18535,248.92445c-1.5088,0 -2.71918,-0.32331 -3.63109,-0.96995c-0.89533,-0.64663 -1.55025,-1.58342 -1.96476,-2.81036c-0.39793,-1.22695 -0.59689,-2.70258 -0.59689,-4.42694v-8.03315c0,-1.75752 0.18239,-3.25804 0.54715,-4.50156c0.36476,-1.24353 1.01968,-2.18859 1.96477,-2.83522c0.94507,-0.64664 2.25492,-0.96995 3.92953,-0.96995c1.5088,0 2.71918,0.2487 3.63109,0.74611c0.92849,0.4974 1.59999,1.26839 2.0145,2.31296c0.41451,1.04457 0.62176,2.3544 0.62176,3.92953v0.89533h-3.13367v-0.74611c0,-1.04457 -0.07461,-1.89845 -0.22384,-2.56165c-0.13265,-0.66321 -0.41451,-1.15233 -0.8456,-1.46736c-0.41451,-0.3316 -1.07772,-0.49741 -1.98963,-0.49741c-0.99482,0 -1.71606,0.22384 -2.16373,0.6715c-0.44766,0.44767 -0.72953,1.06943 -0.8456,1.86529c-0.09949,0.77927 -0.14923,1.66631 -0.14923,2.66114v8.90363c0,1.14405 0.0829,2.10569 0.2487,2.88497c0.18239,0.76269 0.5057,1.33471 0.96995,1.71607c0.48083,0.36477 1.15233,0.54715 2.01451,0.54715c0.87876,0 1.55026,-0.20725 2.01451,-0.62176c0.48083,-0.41451 0.81242,-1.02797 0.99481,-1.84041c0.18239,-0.81244 0.27358,-1.81554 0.27358,-3.00932v-1.66633h-3.05907v-2.38756h6.09326v11.91295h-2.11398l-0.32332,-2.76063c-0.33161,0.89533 -0.83731,1.63316 -1.5171,2.21347c-0.66321,0.56373 -1.58342,0.8456 -2.76062,0.8456zM365.83424,248.62601l5.09844,-24.04973h3.23316l5.14819,24.04974h-3.18342l-1.0943,-6.0684h-4.89947l-1.16892,6.0684zM370.58449,240.17005h4.00414l-2.0145,-10.84352zM388.4881,248.62601l0.44767,-24.04973h3.2829l4.25285,19.49844l4.27772,-19.49844h3.25804l0.44767,24.04974h-2.68601l-0.27358,-17.45907l-4.07876,17.45907h-1.89015l-4.0539,-17.45907l-0.24871,17.45907zM414.93698,248.62601v-24.04973h9.32641v2.48705h-5.9689v7.95855h4.84975v2.38756h-4.84975v8.80414h6.04353v2.41244zM439.49367,248.89958c-1.37617,0 -2.5285,-0.29844 -3.457,-0.89533c-0.91192,-0.59689 -1.60829,-1.41762 -2.08912,-2.46218c-0.48083,-1.04457 -0.72124,-1.8487 -0.78756,-3.24145l4.50155,-1.19378c0.06633,0.84559 -1.37616,1.64974 -1.1772,2.44559c0.21555,0.79585 0.55543,1.44249 1.01968,1.9399c0.48083,0.49741 1.14404,0.74611 1.98963,0.74611c0.87876,0 1.54197,-0.24041 1.98964,-0.72124c0.44767,-0.48083 0.6715,-1.1772 0.6715,-2.08912c0,-1.0943 -0.24871,-1.97306 -0.74611,-2.63627c-0.49741,-0.66321 -1.12745,-1.32642 -1.89015,-1.98963l-4.02902,-3.55648c-0.79586,-0.69637 -1.38445,-1.45077 -1.7658,-2.26321c-0.36476,-0.82901 -0.54716,-1.8487 -0.54716,-3.05907c0,-1.75752 0.50571,-3.11711 1.51711,-4.07876c1.0114,-0.97824 2.38757,-1.46735 4.1285,-1.46735c0.94507,0 1.77409,0.12435 2.48705,0.37306c0.72953,0.23213 1.33472,0.60519 1.81555,1.11917c0.49741,0.51398 0.88704,1.16892 1.1689,1.96477c0.28186,0.77927 0.75441,2.04809 0.85389,3.09266l-3.23316,0.8949c-0.06633,-0.79585 -0.07461,-2.00622 -0.257,-2.66943c-0.1658,-0.66321 -0.47254,-1.19378 -0.92021,-1.59171c-0.44767,-0.41451 -1.086,-0.62177 -1.91502,-0.62177c-0.82902,0 -1.47565,0.22384 -1.9399,0.6715c-0.46425,0.44767 -0.69637,1.11088 -0.69637,1.98964c0,0.72953 0.11607,1.33471 0.34819,1.81554c0.24871,0.46425 0.65492,0.94508 1.21865,1.44249l4.05388,3.55648c0.91192,0.79585 1.71607,1.74923 2.41244,2.86011c0.69637,1.0943 1.04456,2.38756 1.04456,3.87978c0,1.19378 -0.24871,2.22176 -0.74612,3.08394c-0.49741,0.86218 -1.1772,1.52539 -2.03938,1.98963c-0.86217,0.44767 -1.857,0.6715 -2.98446,0.6715z" fill="#004cad" stroke="none" stroke-width="1" stroke-linecap="square"/><path d="M351.77865,248.92445c-1.5088,0 -2.71917,-0.32331 -3.63109,-0.96995c-0.89533,-0.64663 -1.55025,-1.58342 -1.96476,-2.81036c-0.39793,-1.22695 -0.5969,-2.70258 -0.5969,-4.42694v-8.03315c0,-1.75752 0.1824,-3.25804 0.54716,-4.50156c0.36476,-1.24353 1.01969,-2.18859 1.96477,-2.83522c0.94507,-0.64664 2.25492,-0.96995 3.92953,-0.96995c1.5088,0 2.71917,0.2487 3.63109,0.74611c0.92849,0.4974 1.6,1.26839 2.01451,2.31296c0.41451,1.04457 0.62175,2.3544 0.62175,3.92953v0.89533h-3.13367v-0.74611c0,-1.04457 -0.07462,-1.89845 -0.22384,-2.56165c-0.13265,-0.66321 -0.41451,-1.15233 -0.84559,-1.46736c-0.41451,-0.3316 -1.07772,-0.49741 -1.98963,-0.49741c-0.99482,0 -1.71606,0.22384 -2.16372,0.6715c-0.44766,0.44767 -0.72953,1.06943 -0.8456,1.86529c-0.09949,0.77927 -0.14922,1.66631 -0.14922,2.66114v8.90363c0,1.14405 0.0829,2.10569 0.2487,2.88497c0.18239,0.76269 0.5057,1.33471 0.96995,1.71607c0.48083,0.36477 1.15233,0.54715 2.01451,0.54715c0.87876,0 1.55026,-0.20725 2.01451,-0.62176c0.48083,-0.41451 0.81243,-1.02797 0.99482,-1.84041c0.18239,-0.81244 0.27357,-1.81554 0.27357,-3.00932v-1.66633h-3.05907v-2.38756h6.09326v11.91295h-2.11399l-0.32331,-2.76063c-0.33161,0.89533 -0.83731,1.63316 -1.51711,2.21347c-0.66321,0.56373 -1.58342,0.8456 -2.76062,0.8456zM367.42754,248.62601l5.09844,-24.04973h3.23316l5.14819,24.04974h-3.18342l-1.09429,-6.0684h-4.89948l-1.16891,6.0684zM372.1778,240.17005h4.00415l-2.01451,-10.84352zM390.08141,248.62601l0.44767,-24.04973h3.2829l4.25284,19.49844l4.27772,-19.49844h3.25803l0.44767,24.04974h-2.68601l-0.27357,-17.45907l-4.07876,17.45907h-1.89015l-4.05389,-17.45907l-0.24872,17.45907zM416.53027,248.62601v-24.04973h9.32641v2.48705h-5.9689v7.95855h4.84974v2.38756h-4.84974v8.80414h6.04352v2.41244zM441.08697,248.89958c-1.37617,0 -2.5285,-0.29844 -3.457,-0.89533c-0.91192,-0.59689 -1.60829,-1.41762 -2.08912,-2.46218c-0.48083,-1.04457 -0.7544,-2.26322 -0.82072,-3.65596l2.95959,-0.79585c0.06633,0.84559 0.19897,1.66632 0.39793,2.46218c0.21555,0.79585 0.55544,1.44249 1.01969,1.9399c0.48083,0.49741 1.14404,0.74611 1.98963,0.74611c0.87876,0 1.54196,-0.24041 1.98963,-0.72124c0.44767,-0.48083 0.6715,-1.1772 0.6715,-2.08912c0,-1.0943 -0.24871,-1.97306 -0.74611,-2.63627c-0.49741,-0.66321 -1.12746,-1.32642 -1.89015,-1.98963l-4.02902,-3.55648c-0.79586,-0.69637 -1.38446,-1.45077 -1.76581,-2.26321c-0.36476,-0.82901 -0.54715,-1.8487 -0.54715,-3.05907c0,-1.75752 0.5057,-3.11711 1.51709,-4.07876c1.0114,-0.97824 2.38757,-1.46735 4.12851,-1.46735c0.94507,0 1.77409,0.12435 2.48705,0.37306c0.72953,0.23213 1.33472,0.60519 1.81555,1.11917c0.49741,0.51398 0.88705,1.16892 1.16891,1.96477c0.28186,0.77927 0.47253,1.69118 0.57202,2.73574l-2.83523,0.77099c-0.06633,-0.79585 -0.19067,-1.52539 -0.37306,-2.1886c-0.1658,-0.66321 -0.47254,-1.19378 -0.92021,-1.59171c-0.44767,-0.41451 -1.086,-0.62177 -1.91502,-0.62177c-0.82902,0 -1.47565,0.22384 -1.9399,0.6715c-0.46425,0.44767 -0.69638,1.11088 -0.69638,1.98964c0,0.72953 0.11607,1.33471 0.34819,1.81554c0.24871,0.46425 0.65492,0.94508 1.21866,1.44249l4.05388,3.55648c0.91192,0.79585 1.71607,1.74923 2.41244,2.86011c0.69637,1.0943 1.04456,2.38756 1.04456,3.87978c0,1.19378 -0.2487,2.22176 -0.74611,3.08394c-0.49741,0.86218 -1.17721,1.52539 -2.03939,1.98963c-0.86217,0.44767 -1.857,0.6715 -2.98445,0.6715z" fill="#0096ff" stroke="none" stroke-width="1" stroke-linecap="square"/><text transform="translate(25.10101,248.48824) scale(0.65356,0.65356)" font-size="40" xml:space="preserve" fill="#004cad" fill-rule="nonzero" stroke="none" stroke-width="1" stroke-linecap="butt" stroke-linejoin="miter" stroke-miterlimit="10" stroke-dasharray="" stroke-dashoffset="0" font-family="Lexend" font-weight="normal" text-anchor="start" style="mix-blend-mode: normal"><tspan x="0" dy="0">Ways to play unblocked</tspan></text><text transform="translate(26.40812,248.48824) scale(0.65356,0.65356)" font-size="40" xml:space="preserve" fill="#0096ff" fill-rule="nonzero" stroke="none" stroke-width="1" stroke-linecap="butt" stroke-linejoin="miter" stroke-miterlimit="10" stroke-dasharray="" stroke-dashoffset="0" font-family="Lexend" font-weight="normal" text-anchor="start" style="mix-blend-mode: normal"><tspan x="0" dy="0">Ways to play unblocked</tspan></text><path d="M408.88422,112.47048c0.4756,1.62152 1.85449,2.71141 2.97156,3.81148c1.24574,1.22677 2.21315,2.3734 2.21315,2.3734c0,0 -2.80014,-1.34994 -5.24941,-2.90578c-1.54244,-0.97979 -2.90241,-2.10363 -3.47236,-2.82737c-3.10514,-3.94306 -3.2251,-3.54896 -6.62539,-10.74261c-0.84598,-1.78977 -2.20819,-6.32175 -3.1599,-10.08422c-0.40053,-1.58346 -0.56016,-2.70525 -0.80345,-3.72712c0.81059,0.05092 1.65971,-0.02439 2.46182,-0.01853c2.02414,0.01477 3.98755,0.03729 6.03366,0.16241c1.31775,7.00916 3.18017,15.6049 5.63032,23.95835z" data-paper-data="{&quot;index&quot;:null}" fill="#004cad" stroke="none" stroke-width="1" stroke-linecap="butt"/><path d="M411.92035,112.54834c1.006,3.42981 2.21184,6.17877 2.21184,6.17877c0,0 -2.90475,-2.11542 -5.7489,-5.72704c-3.10514,-3.94306 -3.2251,-3.54896 -6.6254,-10.74261c-1.07373,-2.27159 -2.77539,-8.7481 -3.70648,-12.55721c-0.07978,-0.3264 -0.1497,-0.6331 -0.21452,-0.91594c-0.03572,-0.15584 -0.05938,-0.30418 -0.09281,-0.44483c0.00842,0.00058 2.89411,-0.90643 5.67987,-0.84274c1.89754,0.04339 3.64928,1.04217 4.80253,1.11015c1.31885,7.02793 1.23165,15.54687 3.69386,23.94146z" data-paper-data="{&quot;index&quot;:null}" fill="#0096ff" stroke="none" stroke-width="1" stroke-linecap="butt"/><path d="M429.5732,191.10978c-3.17454,-2.07787 -5.5987,-4.93493 -7.27255,-8.57122c-1.67385,-3.63629 -2.51075,-6.43563 -2.74163,-11.28399l15.67059,-4.15572c0.23088,2.94364 -4.79062,5.74299 -4.09801,8.51349c0.75036,2.7705 1.93353,5.0215 3.54966,6.75307c1.67385,1.73157 3.9826,2.59734 6.92623,2.59734c3.0591,0 5.36782,-0.8369 6.92622,-2.51075c1.55841,-1.67385 2.3376,-4.09803 2.3376,-7.27255c0,-3.80943 -0.8658,-6.86851 -2.59735,-9.17725c-1.73157,-2.30874 -3.92485,-4.61746 -6.57991,-6.9262l-14.02564,-12.38066c-2.7705,-2.42418 -4.81947,-5.05035 -6.14702,-7.87857c-1.26981,-2.88592 -1.90472,-6.43563 -1.90472,-10.6491c0,-6.11818 1.76044,-10.85112 5.28127,-14.19877c3.52083,-3.40539 8.31148,-5.10809 14.37193,-5.10809c3.28996,0 6.17587,0.43289 8.6578,1.29869c2.53962,0.80808 4.64635,2.10674 6.3202,3.896c1.73157,1.78927 3.08793,4.06916 4.06914,6.83966c0.98121,2.71276 2.62621,7.12974 2.97253,10.76603l-11.25514,3.11527c-0.23088,-2.7705 -0.25975,-6.98395 -0.89465,-9.2927c-0.5772,-2.30874 -1.64497,-4.15572 -3.20338,-5.54098c-1.55841,-1.44297 -3.78056,-2.16445 -6.6665,-2.16445c-2.88594,0 -5.13694,0.7792 -6.75307,2.33759c-1.61613,1.55838 -2.42418,3.86715 -2.42418,6.92625c0,2.53962 0.40403,4.64634 1.21209,6.32019c0.86579,1.61613 2.2799,3.28995 4.24232,5.0215l14.11218,12.38063c3.17454,2.7705 5.97391,6.08933 8.39807,9.95646c2.42416,3.80943 3.63628,8.31148 3.63628,13.50614c0,4.15573 -0.86577,7.73431 -2.59734,10.73566c-1.73157,3.00135 -4.09803,5.3101 -7.09939,6.92623c-3.00135,1.5584 -6.46447,2.33759 -10.3893,2.33759h-0.00005c-4.79064,0 -8.80207,-1.03892 -12.0343,-3.11677z" fill="#004cad" stroke="none" stroke-width="1" stroke-linecap="butt"/><path d="M435.11976,191.10978c-3.17454,-2.07787 -5.59869,-4.93493 -7.27254,-8.57122c-1.67385,-3.63629 -2.62619,-7.87859 -2.85707,-12.72696l10.30277,-2.77048c0.23088,2.94364 0.69264,5.8007 1.38525,8.5712c0.75036,2.7705 1.93357,5.0215 3.5497,6.75307c1.67385,1.73157 3.98259,2.59734 6.92623,2.59734c3.0591,0 5.3678,-0.8369 6.9262,-2.51075c1.55841,-1.67385 2.33761,-4.09803 2.33761,-7.27255c0,-3.80943 -0.86579,-6.86851 -2.59734,-9.17725c-1.73157,-2.30874 -3.92487,-4.61746 -6.57993,-6.9262l-14.02562,-12.38066c-2.7705,-2.42418 -4.81949,-5.05035 -6.14704,-7.87857c-1.26981,-2.88592 -1.90471,-6.43563 -1.90471,-10.6491c0,-6.11818 1.76042,-10.85112 5.28125,-14.19877c3.52083,-3.40539 8.3115,-5.10809 14.37196,-5.10809c3.28996,0 6.17588,0.43289 8.6578,1.29869c2.53962,0.80808 4.64633,2.10674 6.32018,3.896c1.73157,1.78927 3.08795,4.06916 4.06916,6.83966c0.98121,2.71276 1.64497,5.88725 1.99129,9.52355l-9.86987,2.68393c-0.23088,-2.7705 -0.66377,-5.31012 -1.29868,-7.61886c-0.5772,-2.30874 -1.645,-4.15572 -3.20341,-5.54098c-1.55841,-1.44297 -3.78054,-2.16445 -6.66648,-2.16445c-2.88594,0 -5.13693,0.7792 -6.75306,2.33759c-1.61613,1.55838 -2.42421,3.86715 -2.42421,6.92625c0,2.53962 0.40406,4.64634 1.21211,6.32019c0.86579,1.61613 2.27989,3.28995 4.24232,5.0215l14.11219,12.38063c3.17454,2.7705 5.97389,6.08933 8.39805,9.95646c2.42416,3.80943 3.63628,8.31148 3.63628,13.50614c0,4.15573 -0.86578,7.73431 -2.59735,10.73566c-1.73157,3.00135 -4.09806,5.3101 -7.09941,6.92623c-3.00135,1.5584 -6.46446,2.33759 -10.38929,2.33759h-0.00005c-4.79064,0 -8.80207,-1.03892 -12.0343,-3.11677z" fill="#0096ff" stroke="none" stroke-width="1" stroke-linecap="butt"/><path d="" fill="#0096ff" stroke="none" stroke-width="1" stroke-linecap="butt"/><path d="M27.27937,258.31859c98.12081,6.08409 127.1711,10.83477 212.06385,10.68599c84.89275,-0.14878 89.12993,-5.62609 146.59448,-8.80023c43.53991,-2.40499 53.58556,-3.14641 78.2786,1.88576" fill="none" stroke="#0096ff" stroke-width="10.5" stroke-linecap="round"/></g></g></svg>